<mxfile host="Electron" agent="Mozilla/5.0 (X11; Linux x86_64) AppleWebKit/537.36 (KHTML, like Gecko) draw.io/25.0.1 Chrome/128.0.6613.186 Electron/32.2.6 Safari/537.36" version="25.0.1">
  <diagram name="Page-1" id="aybwl3zZ08_uPgKx2wlj">
    <mxGraphModel dx="874" dy="620" grid="1" gridSize="10" guides="1" tooltips="1" connect="1" arrows="1" fold="1" page="1" pageScale="1" pageWidth="827" pageHeight="1169" math="0" shadow="0">
      <root>
        <mxCell id="0" />
        <mxCell id="1" parent="0" />
        <mxCell id="ddpw-R2Yw-i5jT3gzW7T-1" value="" style="rounded=0;whiteSpace=wrap;html=1;" vertex="1" parent="1">
          <mxGeometry x="140" y="460" width="120" height="60" as="geometry" />
        </mxCell>
        <mxCell id="ddpw-R2Yw-i5jT3gzW7T-2" value="" style="rounded=0;whiteSpace=wrap;html=1;" vertex="1" parent="1">
          <mxGeometry x="140" y="460" width="120" height="60" as="geometry" />
        </mxCell>
        <mxCell id="ddpw-R2Yw-i5jT3gzW7T-3" value="" style="rounded=0;whiteSpace=wrap;html=1;" vertex="1" parent="1">
          <mxGeometry x="140" y="460" width="120" height="60" as="geometry" />
        </mxCell>
        <mxCell id="ddpw-R2Yw-i5jT3gzW7T-4" value="" style="rounded=0;whiteSpace=wrap;html=1;" vertex="1" parent="1">
          <mxGeometry x="140" y="460" width="120" height="60" as="geometry" />
        </mxCell>
        <mxCell id="ddpw-R2Yw-i5jT3gzW7T-5" value="" style="rounded=0;whiteSpace=wrap;html=1;" vertex="1" parent="1">
          <mxGeometry x="140" y="460" width="120" height="60" as="geometry" />
        </mxCell>
        <mxCell id="ddpw-R2Yw-i5jT3gzW7T-6" value="" style="shape=trapezoid;perimeter=trapezoidPerimeter;whiteSpace=wrap;html=1;fixedSize=1;" vertex="1" parent="1">
          <mxGeometry x="140" y="460" width="120" height="60" as="geometry" />
        </mxCell>
        <mxCell id="ddpw-R2Yw-i5jT3gzW7T-7" value="" style="shape=trapezoid;perimeter=trapezoidPerimeter;whiteSpace=wrap;html=1;fixedSize=1;" vertex="1" parent="1">
          <mxGeometry x="140" y="460" width="120" height="60" as="geometry" />
        </mxCell>
        <mxCell id="ddpw-R2Yw-i5jT3gzW7T-8" value="/dev/nvme0n1p1&amp;nbsp; (EFI) 100 MB" style="rounded=1;whiteSpace=wrap;html=1;fontSize=20;fillColor=#f8cecc;strokeColor=#b85450;" vertex="1" parent="1">
          <mxGeometry x="1010" y="250" width="520" height="30" as="geometry" />
        </mxCell>
        <mxCell id="ddpw-R2Yw-i5jT3gzW7T-10" value="/dev/nvme0n1p2 (Windows) 10 MB" style="rounded=1;whiteSpace=wrap;html=1;fontSize=20;fillColor=#f8cecc;strokeColor=#b85450;" vertex="1" parent="1">
          <mxGeometry x="1010" y="290" width="520" height="30" as="geometry" />
        </mxCell>
        <mxCell id="ddpw-R2Yw-i5jT3gzW7T-11" value="/dev/nvme0n1p3 (Windows Installation) 194,7GB" style="rounded=1;whiteSpace=wrap;html=1;fontSize=20;fillColor=#f8cecc;strokeColor=#b85450;" vertex="1" parent="1">
          <mxGeometry x="1010" y="330" width="520" height="30" as="geometry" />
        </mxCell>
        <mxCell id="ddpw-R2Yw-i5jT3gzW7T-12" value="/dev/nvme0n1p4 (Windows Recovery) 505MB" style="rounded=1;whiteSpace=wrap;html=1;fontSize=20;fillColor=#f8cecc;strokeColor=#b85450;" vertex="1" parent="1">
          <mxGeometry x="1010" y="370" width="520" height="30" as="geometry" />
        </mxCell>
        <mxCell id="ddpw-R2Yw-i5jT3gzW7T-13" value="/dev/nvme0n1p5 (GRUB) 4,7 GB" style="rounded=1;whiteSpace=wrap;html=1;fontSize=20;fillColor=#f8cecc;strokeColor=#b85450;" vertex="1" parent="1">
          <mxGeometry x="1010" y="410" width="520" height="30" as="geometry" />
        </mxCell>
        <mxCell id="ddpw-R2Yw-i5jT3gzW7T-14" value="/dev/nvme0n1p6 (Manar Home) 415 GB" style="rounded=1;whiteSpace=wrap;html=1;fontSize=20;fillColor=#dae8fc;strokeColor=#6c8ebf;" vertex="1" parent="1">
          <mxGeometry x="1010" y="450" width="520" height="30" as="geometry" />
        </mxCell>
        <mxCell id="ddpw-R2Yw-i5jT3gzW7T-15" value="/dev/nvme0n1p7 (Temp) 68,8G" style="rounded=1;whiteSpace=wrap;html=1;fontSize=20;fillColor=#dae8fc;strokeColor=#6c8ebf;" vertex="1" parent="1">
          <mxGeometry x="1010" y="490" width="520" height="30" as="geometry" />
        </mxCell>
        <mxCell id="ddpw-R2Yw-i5jT3gzW7T-16" value="/dev/nvme0n1p8 (/) 45 G" style="rounded=1;whiteSpace=wrap;html=1;fontSize=20;fillColor=#f8cecc;strokeColor=#b85450;" vertex="1" parent="1">
          <mxGeometry x="1010" y="530" width="520" height="30" as="geometry" />
        </mxCell>
        <mxCell id="ddpw-R2Yw-i5jT3gzW7T-17" value="/dev/nvme0n1p9 (Manar /Opt) 49,4 G" style="rounded=1;whiteSpace=wrap;html=1;fontSize=20;fillColor=#dae8fc;strokeColor=#6c8ebf;" vertex="1" parent="1">
          <mxGeometry x="1010" y="570" width="520" height="30" as="geometry" />
        </mxCell>
        <mxCell id="ddpw-R2Yw-i5jT3gzW7T-18" value="/dev/nvme0n1p12 (My Data) 1T&amp;nbsp;" style="rounded=1;whiteSpace=wrap;html=1;fontSize=20;fillColor=#d5e8d4;strokeColor=#82b366;" vertex="1" parent="1">
          <mxGeometry x="1010" y="610" width="520" height="30" as="geometry" />
        </mxCell>
        <mxCell id="ddpw-R2Yw-i5jT3gzW7T-19" value="/dev/nvme0n1p19 (Linux Swap) 31,3 GB" style="rounded=1;whiteSpace=wrap;html=1;fontSize=20;fillColor=#d5e8d4;strokeColor=#82b366;" vertex="1" parent="1">
          <mxGeometry x="1010" y="650" width="520" height="30" as="geometry" />
        </mxCell>
        <mxCell id="ddpw-R2Yw-i5jT3gzW7T-21" value="&lt;font style=&quot;font-size: 19px;&quot;&gt;Dont touch&lt;/font&gt;" style="rounded=1;whiteSpace=wrap;html=1;fillColor=#f8cecc;strokeColor=#b85450;" vertex="1" parent="1">
          <mxGeometry x="1010" y="690" width="120" height="60" as="geometry" />
        </mxCell>
        <mxCell id="ddpw-R2Yw-i5jT3gzW7T-22" value="&lt;font style=&quot;font-size: 19px;&quot;&gt;Mounted, Ours&lt;/font&gt;" style="rounded=1;whiteSpace=wrap;html=1;fillColor=#dae8fc;strokeColor=#6c8ebf;" vertex="1" parent="1">
          <mxGeometry x="1210" y="690" width="120" height="60" as="geometry" />
        </mxCell>
        <mxCell id="ddpw-R2Yw-i5jT3gzW7T-23" value="&lt;span style=&quot;font-size: 19px;&quot;&gt;Data and free storage&lt;/span&gt;" style="rounded=1;whiteSpace=wrap;html=1;fillColor=#d5e8d4;strokeColor=#82b366;" vertex="1" parent="1">
          <mxGeometry x="1410" y="690" width="120" height="60" as="geometry" />
        </mxCell>
        <mxCell id="ddpw-R2Yw-i5jT3gzW7T-24" value="to mount on linux use -t ntfs-3g:&lt;div&gt;&lt;code class=&quot;!whitespace-pre hljs language-bash&quot;&gt;sudo mount -t ntfs-3g /dev/nvme0n1p12 /mnt/tb&lt;/code&gt;&lt;br&gt;&lt;/div&gt;" style="rounded=0;whiteSpace=wrap;html=1;" vertex="1" parent="1">
          <mxGeometry x="1610" y="595" width="360" height="60" as="geometry" />
        </mxCell>
        <mxCell id="ddpw-R2Yw-i5jT3gzW7T-25" value="" style="endArrow=classic;html=1;rounded=0;entryX=0;entryY=0.5;entryDx=0;entryDy=0;exitX=1;exitY=0.5;exitDx=0;exitDy=0;" edge="1" parent="1" source="ddpw-R2Yw-i5jT3gzW7T-18" target="ddpw-R2Yw-i5jT3gzW7T-24">
          <mxGeometry width="50" height="50" relative="1" as="geometry">
            <mxPoint x="1590" y="520" as="sourcePoint" />
            <mxPoint x="1640" y="470" as="targetPoint" />
          </mxGeometry>
        </mxCell>
      </root>
    </mxGraphModel>
  </diagram>
</mxfile>
